# xmcd
#
# Track frame offsets: 
#        150
#        9819
#        21728
#        36121
#        53559
#        64621
#        76903
#        92481
#        103622
#        111659
#
# Disc length: 1656 seconds
#
# Revision: 0
# Processed by: cddbd v1.5.2PL0 Copyright (c) Steve Scherf et al.
# Submitted via: ExactAudioCopy v0.99pb5
#
DISCID=7406760a
DTITLE=Various Artist - American Music Legends: Patriotic
DYEAR=2005
DGENRE=Country
TTITLE0=Kate Smith - God Bless America [Live]
TTITLE1=Ronnie Milsap - America The Beautiful [Live]
TTITLE2=Lee Greenwood - God Bless The U.S.A.
TTITLE3=The Charlie Daniels Band - My Beautiful America
TTITLE4=Tennessee Ernie Ford - America
TTITLE5=Lee Greenwood - This Land Is Your Land
TTITLE6=Victory Military Band - Stars and Stripes Forever
TTITLE7=Tennessee Ernie Ford - Battle Hymn Of The Republic
TTITLE8=The Broadway Parade - You're A Grand Old Flag
TTITLE9=The Isaacs - The Star-Spangled Banner [Live]
EXTD=
EXTT0=
EXTT1=
EXTT2=
EXTT3=
EXTT4=
EXTT5=
EXTT6=
EXTT7=
EXTT8=
EXTT9=
PLAYORDER=
